<?xml version="1.0" standalone="no"?>
<!DOCTYPE svg PUBLIC "-//W3C//DTD SVG 20010904//EN"
 "http://www.w3.org/TR/2001/REC-SVG-20010904/DTD/svg10.dtd">
<svg version="1.0" xmlns="http://www.w3.org/2000/svg"
 width="100.000000pt" height="100.000000pt" viewBox="0 0 100.000000 100.000000"
 preserveAspectRatio="xMidYMid meet">
<metadata>
Created by potrace 1.11, written by Peter Selinger 2001-2013
</metadata>
<g transform="translate(0.000000,100.000000) scale(0.100000,-0.100000)"
fill="#000000" stroke="none">
<path d="M215 878 c-38 -22 -86 -50 -105 -63 l-35 -22 0 -241 c1 -133 3 -243
5 -245 6 -5 367 -207 402 -224 25 -13 34 -10 175 70 81 46 175 99 208 117 33
18 62 35 65 37 2 2 5 112 5 244 0 203 -2 242 -15 253 -8 7 -57 36 -108 64
l-92 52 -105 -60 -105 -60 -48 24 c-27 14 -76 41 -108 60 -32 20 -61 36 -64
36 -3 -1 -36 -19 -75 -42z m257 -300 l38 -18 106 60 c58 33 107 60 110 60 2 0
4 -57 4 -128 l0 -127 -92 -50 c-51 -27 -102 -55 -113 -60 -16 -9 -30 -5 -70
18 -27 17 -71 41 -97 55 -26 14 -53 31 -60 39 -11 13 -20 225 -11 245 2 4 36
-12 76 -34 39 -23 89 -50 109 -60z"/>
</g>
</svg>
