<?xml version="1.0" encoding="utf-8"?>
<!-- Generator: Adobe Illustrator 16.0.0, SVG Export Plug-In . SVG Version: 6.00 Build 0)  -->
<!DOCTYPE svg PUBLIC "-//W3C//DTD SVG 1.1//EN" "http://www.w3.org/Graphics/SVG/1.1/DTD/svg11.dtd">
<svg version="1.1" id="Layer_1" xmlns="http://www.w3.org/2000/svg" xmlns:xlink="http://www.w3.org/1999/xlink" x="0px" y="0px"
	 width="612px" height="792px" viewBox="0 0 612 792" enable-background="new 0 0 612 792" xml:space="preserve">
<g>
	<g>
		<g>
			<path d="M608.265,222.986l-127.5-127.5c-2.391-2.391-5.628-3.735-9.016-3.735H51.999C23.885,91.75,1,114.623,1,142.751v510.001
				c0,28.127,22.885,50.998,51,50.998h509c28.113,0,50.999-22.871,50.999-51V232C612,228.614,610.655,225.377,608.265,222.986z
				 M484.5,135.28l83.971,83.971h-58.472c-14.069,0-25.499-11.443-25.499-25.5V135.28z M586.5,652.75
				c0,14.057-11.431,25.5-25.499,25.5H52c-14.07,0-25.5-11.443-25.5-25.5V142.751c0-14.057,11.431-25.5,25.5-25.5h407v76.5
				c0,28.127,22.886,50.999,51,50.999h76.5V652.75z"/>
			<path d="M522.75,448.75H90.25c-7.048,0-12.75,5.703-12.75,12.752c0,7.047,5.703,12.75,12.75,12.75h432.5
				c7.048,0,12.75-5.703,12.75-12.75C535.5,454.453,529.797,448.75,522.75,448.75z"/>
			<path d="M522.75,372.25H90.25c-7.048,0-12.75,5.703-12.75,12.751s5.703,12.75,12.75,12.75h432.5c7.048,0,12.75-5.703,12.75-12.75
				C535.5,377.954,529.797,372.25,522.75,372.25z"/>
			<path d="M522.75,525.25H90.25c-7.048,0-12.75,5.703-12.75,12.752c0,7.047,5.703,12.75,12.75,12.75h432.5
				c7.048,0,12.75-5.703,12.75-12.75C535.5,530.953,529.797,525.25,522.75,525.25z"/>
			<path d="M383.25,601.75h-293c-7.048,0-12.75,5.703-12.75,12.752c0,7.047,5.703,12.75,12.75,12.75h293
				c7.048,0,12.751-5.703,12.751-12.75C396,607.453,390.298,601.75,383.25,601.75z"/>
			<path d="M205,308.5c0,7.048,5.703,12.75,12.751,12.75h305c7.048,0,12.75-5.703,12.75-12.75c0-7.047-5.702-12.75-12.75-12.75h-305
				C210.703,295.751,205,301.454,205,308.5z"/>
			<path d="M115.75,295.751h-25.5c-7.048,0-12.75,5.703-12.75,12.75c0,7.047,5.703,12.75,12.75,12.75h12.75
				c0,7.048,5.703,12.75,12.75,12.75c7.048,0,12.751-5.703,12.751-12.75v-2.349C143.309,313.621,154,299.601,154,283
				c0-21.092-17.158-38.25-38.25-38.25c-7.022,0-12.75-5.715-12.75-12.75c0-7.034,5.728-12.75,12.75-12.75h25.5
				c7.047,0,12.75-5.703,12.75-12.75c0-7.048-5.703-12.75-12.75-12.75h-12.751c0-7.048-5.702-12.75-12.75-12.75
				s-12.75,5.703-12.75,12.75v2.349C88.191,201.38,77.5,215.399,77.5,232c0,21.093,17.158,38.25,38.25,38.25
				c7.022,0,12.75,5.715,12.75,12.75S122.772,295.751,115.75,295.751z"/>
		</g>
	</g>
</g>
</svg>
