<?xml version="1.0" encoding="iso-8859-1"?>
<!-- Generator: Adobe Illustrator 19.0.0, SVG Export Plug-In . SVG Version: 6.00 Build 0)  -->
<svg xmlns="http://www.w3.org/2000/svg" xmlns:xlink="http://www.w3.org/1999/xlink" version="1.1" id="Layer_1" x="0px" y="0px" viewBox="0 0 512 512" style="enable-background:new 0 0 512 512;" xml:space="preserve" width="512" height="512">
<g id="XMLID_305_">
	<g id="XMLID_275_">
		<path fill="#fff" id="XMLID_825_" d="M416,368c23.159,0,42-18.841,42-42s-18.841-42-42-42s-42,18.841-42,42S392.841,368,416,368z M416,304    c12.131,0,22,9.869,22,22s-9.869,22-22,22s-22-9.869-22-22S403.869,304,416,304z"/>
		<path fill="#fff" id="XMLID_826_" d="M467.819,157.07c1.86-1.86,2.931-4.44,2.931-7.07c0-2.63-1.07-5.21-2.931-7.07    c-1.859-1.86-4.439-2.93-7.069-2.93s-5.21,1.07-7.07,2.93c-1.86,1.86-2.93,4.44-2.93,7.07c0,2.63,1.069,5.21,2.93,7.07    s4.44,2.93,7.07,2.93S465.96,158.93,467.819,157.07z"/>
		<path fill="#fff" id="XMLID_830_" d="M482,40h-34.254v-6c0-18.748-15.252-34-34-34s-34,15.252-34,34v6h-89.873v-6c0-18.748-15.252-34-34-34    s-34,15.252-34,34v6H132v-6c0-18.748-15.252-34-34-34S64,15.252,64,34v6H30C13.458,40,0,53.458,0,70v412c0,16.542,13.458,30,30,30    h132.667c5.522,0,10-4.477,10-10s-4.478-10-10-10H30c-5.514,0-10-4.486-10-10V160h400.75c5.522,0,10-4.477,10-10s-4.478-10-10-10    H20V70c0-5.514,4.486-10,10-10h34v7.5c0,18.748,15.252,34,34,34s34-15.252,34-34V60h89.873v7.5c0,18.748,15.252,34,34,34    s34-15.252,34-34V60h89.873v7.5c0,18.748,15.252,34,34,34s34-15.252,34-34V60H482c5.514,0,10,4.486,10,10v412    c0,5.514-4.486,10-10,10H242.667c-5.522,0-10,4.477-10,10s4.478,10,10,10H482c16.542,0,30-13.458,30-30V70    C512,53.458,498.542,40,482,40z M112,67.5c0,7.72-6.28,14-14,14s-14-6.28-14-14V34c0-7.72,6.28-14,14-14s14,6.28,14,14V67.5z     M269.873,67.5c0,7.72-6.28,14-14,14s-14-6.28-14-14V34c0-7.72,6.28-14,14-14s14,6.28,14,14V67.5z M427.746,67.5    c0,7.72-6.28,14-14,14s-14-6.28-14-14V34c0-7.72,6.28-14,14-14s14,6.28,14,14V67.5z"/>
		<path fill="#fff" id="XMLID_837_" d="M96,180c-23.159,0-42,18.841-42,42s18.841,42,42,42s42-18.841,42-42S119.159,180,96,180z M96,244    c-12.131,0-22-9.869-22-22s9.869-22,22-22s22,9.869,22,22S108.131,244,96,244z"/>
		<path fill="#fff" id="XMLID_842_" d="M416,180c-23.159,0-42,18.841-42,42s18.841,42,42,42s42-18.841,42-42S439.159,180,416,180z M416,244    c-12.131,0-22-9.869-22-22s9.869-22,22-22s22,9.869,22,22S428.131,244,416,244z"/>
		<path fill="#fff" id="XMLID_845_" d="M309.333,264c23.159,0,42-18.841,42-42s-18.841-42-42-42s-42,18.841-42,42S286.174,264,309.333,264z     M309.333,200c12.131,0,22,9.869,22,22s-9.869,22-22,22s-22-9.869-22-22S297.202,200,309.333,200z"/>
		<path fill="#fff" id="XMLID_848_" d="M202.667,264c23.159,0,42-18.841,42-42s-18.841-42-42-42s-42,18.841-42,42S179.508,264,202.667,264z     M202.667,200c12.131,0,22,9.869,22,22s-9.869,22-22,22s-22-9.869-22-22S190.536,200,202.667,200z"/>
		<path fill="#fff" id="XMLID_852_" d="M96,388c-23.159,0-42,18.841-42,42s18.841,42,42,42s42-18.841,42-42S119.159,388,96,388z M96,452    c-12.131,0-22-9.869-22-22s9.869-22,22-22s22,9.869,22,22S108.131,452,96,452z"/>
		<path fill="#fff" id="XMLID_855_" d="M416,472c23.159,0,42-18.841,42-42s-18.841-42-42-42s-42,18.841-42,42S392.841,472,416,472z M416,408    c12.131,0,22,9.869,22,22s-9.869,22-22,22s-22-9.869-22-22S403.869,408,416,408z"/>
		<path fill="#fff" id="XMLID_858_" d="M309.333,472c23.159,0,42-18.841,42-42s-18.841-42-42-42s-42,18.841-42,42S286.174,472,309.333,472z     M309.333,408c12.131,0,22,9.869,22,22s-9.869,22-22,22s-22-9.869-22-22S297.202,408,309.333,408z"/>
		<path fill="#fff" id="XMLID_863_" d="M202.667,388c-23.159,0-42,18.841-42,42s18.841,42,42,42s42-18.841,42-42S225.826,388,202.667,388z     M202.667,452c-12.131,0-22-9.869-22-22s9.869-22,22-22s22,9.869,22,22S214.798,452,202.667,452z"/>
		<path fill="#fff" id="XMLID_866_" d="M96,284c-23.159,0-42,18.841-42,42s18.841,42,42,42s42-18.841,42-42S119.159,284,96,284z M96,348    c-12.131,0-22-9.869-22-22s9.869-22,22-22s22,9.869,22,22S108.131,348,96,348z"/>
		<path fill="#fff" id="XMLID_871_" d="M309.333,368c23.159,0,42-18.841,42-42s-18.841-42-42-42s-42,18.841-42,42S286.174,368,309.333,368z     M309.333,304c12.131,0,22,9.869,22,22s-9.869,22-22,22s-22-9.869-22-22S297.202,304,309.333,304z"/>
		<path fill="#fff" id="XMLID_874_" d="M202.667,368c23.159,0,42-18.841,42-42s-18.841-42-42-42s-42,18.841-42,42S179.508,368,202.667,368z     M202.667,304c12.131,0,22,9.869,22,22s-9.869,22-22,22s-22-9.869-22-22S190.536,304,202.667,304z"/>
		<path fill="#fff" id="XMLID_875_" d="M202.67,492c-2.64,0-5.21,1.07-7.07,2.93c-1.87,1.86-2.93,4.44-2.93,7.07c0,2.63,1.06,5.21,2.93,7.07    c1.86,1.86,4.431,2.93,7.07,2.93c2.63,0,5.21-1.07,7.07-2.93c1.859-1.86,2.93-4.44,2.93-7.07c0-2.63-1.07-5.21-2.93-7.07    C207.88,493.07,205.3,492,202.67,492z"/>
	</g>
</g>















</svg>
