<?xml version="1.0" encoding="utf-8"?>
<!-- Generator: Adobe Illustrator 16.0.0, SVG Export Plug-In . SVG Version: 6.00 Build 0)  -->
<!DOCTYPE svg PUBLIC "-//W3C//DTD SVG 1.1//EN" "http://www.w3.org/Graphics/SVG/1.1/DTD/svg11.dtd">
<svg version="1.1" id="Capa_1" xmlns="http://www.w3.org/2000/svg" xmlns:xlink="http://www.w3.org/1999/xlink" x="0px" y="0px"
	 width="612px" height="792px" viewBox="0 0 612 792" enable-background="new 0 0 612 792" xml:space="preserve">
<g>
	<g>
		<path fill="#7C7C7C" d="M0,299.641v270.03c0,41.216,33.473,74.688,74.689,74.688h462.622c41.217,0,74.689-33.473,74.689-74.688
			v-270.03c0-39.218-31.849-71.067-71.067-71.067h-99.418l-2.373-10.366c-9.617-41.591-46.213-70.567-88.928-70.567h-88.553
			c-42.59,0-79.185,28.976-88.927,70.567l-2.373,10.366H71.067C31.849,228.574,0,260.548,0,299.641z M182.601,259.174
			c7.12,0,13.239-4.871,14.863-11.865l5.121-22.232c6.495-27.603,30.725-46.837,59.077-46.837h88.553
			c28.352,0,52.582,19.234,59.077,46.837l5.12,22.232c1.624,6.869,7.744,11.865,14.863,11.865h111.534
			c22.356,0,40.467,18.11,40.467,40.467v270.03c0,24.354-19.734,44.089-44.089,44.089H74.689c-24.355,0-44.089-19.734-44.089-44.089
			v-270.03c0-22.356,18.11-40.467,40.467-40.467H182.601L182.601,259.174z"/>
		<circle fill="#7C7C7C" cx="103.541" cy="324.496" r="20.483"/>
		<path fill="#7C7C7C" d="M306,565.799c70.817,0,128.52-57.703,128.52-128.521c0-70.816-57.702-128.52-128.52-128.52
			c-70.817,0-128.52,57.578-128.52,128.52C177.48,508.221,235.183,565.799,306,565.799z M306,339.359
			c53.956,0,97.92,43.964,97.92,97.919c0,53.956-43.964,97.921-97.92,97.921s-97.92-43.965-97.92-97.921
			C208.08,383.323,252.044,339.359,306,339.359z"/>
	</g>
</g>
</svg>
