<?xml version="1.0" encoding="iso-8859-1"?>
<!-- Generator: Adobe Illustrator 19.0.0, SVG Export Plug-In . SVG Version: 6.00 Build 0)  -->
<svg version="1.1" id="Capa_1" xmlns="http://www.w3.org/2000/svg" xmlns:xlink="http://www.w3.org/1999/xlink" x="0px" y="0px"
	 viewBox="0 0 512.001 512.001" style="enable-background:new 0 0 512.001 512.001;" xml:space="preserve">
<g>
	<g>
		<path fill="#A9C598"  d="M331.137,340.558c-8.284,0-15,6.716-15,15c0,7.103-4.905,10.366-7.014,11.439c-2.108,1.074-7.634,3.118-13.377-1.062
			l-14.258-10.378L271,347.924v-8.775c24.036-0.889,43.318-20.709,43.318-45.007c0-24.813-20.187-45-45-45h-26.637
			c-24.813,0-45,20.187-45,45v0.05c0,24.25,19.282,44.068,43.318,44.957v8.775l-10.488,7.634l-14.257,10.378
			c-5.743,4.182-11.268,2.135-13.377,1.062c-2.108-1.073-7.014-4.337-7.014-11.439c0-8.284-6.716-15-15-15s-15,6.716-15,15
			c0,16.199,8.969,30.827,23.405,38.176c14.438,7.348,31.543,5.991,44.641-3.543l22.09-16.08l22.092,16.081
			c7.497,5.456,16.307,8.234,25.178,8.234c6.627,0,13.288-1.551,19.462-4.692c14.437-7.349,23.405-21.977,23.405-38.176
			C346.137,347.274,339.421,340.558,331.137,340.558z M242.682,309.191c-8.272,0-15-6.729-15-15v-0.05c0-8.271,6.729-15,15-15
			h26.637c8.271,0,15,6.729,15,15.05c0,8.271-6.729,15-15,15H242.682z"/>
	</g>
</g>
<g>
	<g>
		<path fill="#A9C598"  d="M199.174,181.763c-8.284,0-15,6.716-15,15v20.574c0,8.285,6.716,15,15,15s15-6.716,15-15v-20.574
			C214.174,188.479,207.458,181.763,199.174,181.763z"/>
	</g>
</g>
<g>
	<g>
		<path fill="#A9C598"  d="M312.827,181.763c-8.284,0-15,6.716-15,15v20.574c0,8.285,6.715,15,15,15c8.284,0,15-6.716,15-15v-20.574
			C327.827,188.479,321.111,181.763,312.827,181.763z"/>
	</g>
</g>
<g>
	<g>
		<path fill="#A9C598"  d="M511.954,325.489c-0.645-8.259-7.88-14.427-16.121-13.787l-29.288,2.286c1.305-5.86,2.356-11.794,3.172-17.785
			l27.07-2.112c8.259-0.645,14.432-7.862,13.787-16.121c-0.645-8.259-7.881-14.445-16.121-13.787l-22.73,1.774
			c-0.125-39.655-11.031-78.166-31.62-111.795l17.703-107.084c0.75-4.537-0.622-9.167-3.724-12.563s-7.592-5.176-12.176-4.844
			l-0.904,0.067c-36.904,2.721-71.656,15.88-100.976,38.162C313.446,56.625,285.223,50.915,256,50.915
			c-29.228,0-57.453,5.712-84.037,16.99C142.367,45.412,107.264,32.222,70.02,29.666c-4.581-0.315-9.043,1.482-12.127,4.876
			c-3.085,3.393-4.447,8.011-3.699,12.535l17.703,107.084c-20.533,33.542-31.449,71.97-31.623,111.52
			c0,0.092,0.002,0.184,0.002,0.276l-22.729-1.774c-8.25-0.636-15.477,5.526-16.121,13.787c-0.645,8.259,5.528,15.477,13.787,16.121
			l27.084,2.114c0.823,5.99,1.89,11.924,3.207,17.787l-29.337-2.29c-8.248-0.635-15.477,5.526-16.121,13.787
			c-0.645,8.259,5.527,15.477,13.787,16.121l41.1,3.208c10.648,27.25,26.912,52.315,48.228,73.759
			c40.796,41.043,94.946,63.699,152.476,63.794c0.123,0,0.244,0,0.367,0c57.558,0,111.674-22.387,152.413-63.059
			c21.597-21.561,38.057-46.889,48.775-74.504l40.976-3.198C506.427,340.965,512.599,333.748,511.954,325.489z M441.707,268.299
			l-45.818,3.575c-8.259,0.645-14.432,7.862-13.787,16.121c0.613,7.862,7.183,13.834,14.938,13.834c0.392,0,0.787-0.016,1.184-0.047
			l40.781-3.182c-1.04,6.032-2.373,11.988-3.994,17.849l-37.742,2.946c-8.26,0.645-14.432,7.862-13.787,16.121
			c0.613,7.862,7.183,13.834,14.938,13.834c0.392,0,0.787-0.016,1.184-0.047l23.718-1.851c-8.972,18.541-21.091,35.644-36.101,50.63
			c-35.076,35.019-81.662,54.291-131.22,54.289c-0.104,0-0.213,0-0.316,0c-49.5-0.082-96.111-19.594-131.248-54.942
			c-14.767-14.856-26.712-31.728-35.599-49.965l23.558,1.839c0.397,0.031,0.791,0.047,1.184,0.047
			c7.754,0,14.324-5.972,14.938-13.834c0.645-8.259-5.527-15.477-13.787-16.121l-37.667-2.94
			c-1.636-5.865-2.984-11.821-4.034-17.852l40.746,3.18c0.397,0.031,0.791,0.047,1.184,0.047c7.754,0,14.324-5.972,14.938-13.834
			c0.645-8.259-5.528-15.477-13.787-16.121l-45.816-3.575c-0.007-0.829-0.023-1.656-0.02-2.486
			c0.157-35.755,10.506-70.436,29.927-100.293c2.042-3.14,2.836-6.93,2.225-10.625L87.076,62.052
			c26.059,4.948,50.379,16.263,71.188,33.246l2.029,1.656c4.492,3.666,10.698,4.416,15.936,1.921
			c13.319-6.345,27.159-11.008,41.398-13.997v43.874c0,8.284,6.716,15,15,15s15-6.716,15-15V81.114
			c2.78-0.122,5.569-0.199,8.372-0.199c2.803,0,5.592,0.078,8.372,0.199v47.638c0,8.284,6.716,15,15,15s15-6.716,15-15V84.879
			c14.24,2.989,28.079,7.652,41.398,13.997c5.259,2.504,11.494,1.739,15.99-1.966l1.365-1.125
			c20.933-17.25,45.47-28.736,71.797-33.731l-15.349,92.841c-0.611,3.695,0.183,7.486,2.226,10.626
			c19.579,30.098,29.929,65.065,29.929,101.122C441.727,267.196,441.712,267.747,441.707,268.299z"/>
	</g>
</g>
<g>
</g>
<g>
</g>
<g>
</g>
<g>
</g>
<g>
</g>
<g>
</g>
<g>
</g>
<g>
</g>
<g>
</g>
<g>
</g>
<g>
</g>
<g>
</g>
<g>
</g>
<g>
</g>
<g>
</g>
</svg>
