<svg height="512pt" viewBox="0 0 512 512" width="512pt" xmlns="http://www.w3.org/2000/svg"><path d="m96 96h320v320h-320zm0 0" fill="#333"/><path d="m416 252.160156v163.839844h-320v-74.878906l106.878906-142.242188 44 44.160156 67.359375-92.640624zm0 0" fill="#fff"/><path d="m347.3125 416h-251.3125v-21.601562l110.273438-146.75 141.039062 141.039062zm0 0" fill="#fff"/><g fill="#000"><path d="m0 96h64v32h-64zm0 0"/><path d="m0 384h64v32h-64zm0 0"/><path d="m448 96h64v32h-64zm0 0"/><path d="m448 384h64v32h-64zm0 0"/><path d="m96 448h32v64h-32zm0 0"/><path d="m384 448h32v64h-32zm0 0"/><path d="m96 0h32v64h-32zm0 0"/><path d="m384 0h32v64h-32zm0 0"/></g><path d="m160 160h32v32h-32zm0 0" fill="#fff"/><path d="m227.792969 269.167969-83.503907 114.832031h-40.480468l-7.808594 10.398438v21.601562h251.3125v-27.3125zm0 0" fill="#000"/><path d="m416 297.441406v118.558594h-255.359375l157.4375-216.480469zm0 0" fill="#fff"/><path d="m416 384v32h-255.359375l23.199219-32zm0 0" fill="#000"/></svg>