<?xml version="1.0" encoding="utf-8"?>
<!-- Generator: Adobe Illustrator 16.0.0, SVG Export Plug-In . SVG Version: 6.00 Build 0)  -->
<!DOCTYPE svg PUBLIC "-//W3C//DTD SVG 1.1//EN" "http://www.w3.org/Graphics/SVG/1.1/DTD/svg11.dtd">
<svg version="1.1" id="Capa_1" xmlns="http://www.w3.org/2000/svg" xmlns:xlink="http://www.w3.org/1999/xlink" x="0px" y="0px"
	 width="612px" height="792px" viewBox="0 0 612 792" enable-background="new 0 0 612 792" xml:space="preserve">
<g>
	<g id="trash">
		<path fill="#a9c598"  d="M579.368,220.394c-1.836-30.026-26.526-53.856-56.992-53.856h-57.375v-19.125v-0.038
			c0-31.69-25.704-57.375-57.375-57.375h-191.25c-31.69,0-57.375,25.685-57.375,57.375v0.019v19.125h-57.375
			c-30.504,0-55.176,23.83-57.012,53.856h-0.363V243v19.125c0,21.114,17.136,38.25,38.25,38.25l0,0V625.5
			c0,42.247,34.253,76.5,76.5,76.5h306c42.247,0,76.5-34.253,76.5-76.5V300.375l0,0c21.114,0,38.25-17.136,38.25-38.25V243v-22.606
			H579.368z M197.251,147.394c0-10.576,8.549-19.125,19.125-19.125h191.25c10.576,0,19.125,8.549,19.125,19.125v19.125h-229.5
			V147.394z M503.251,625.52c0,21.075-17.174,38.25-38.25,38.25h-306c-21.095,0-38.25-17.175-38.25-38.25V300.394h382.5V625.52z
			 M541.501,243v19.125h-459V243v-19.106c0-10.576,8.549-19.125,19.125-19.125h420.75c10.576,0,19.125,8.549,19.125,19.125V243z"/>
		<path fill="#a9c598"  d="M178.126,625.596h38.25c10.576,0,19.125-8.549,19.125-19.125V357.846c0-10.576-8.549-19.125-19.125-19.125
			h-38.25c-10.576,0-19.125,8.549-19.125,19.125v248.625C159.001,617.047,167.55,625.596,178.126,625.596z M178.126,357.827h38.25
			v248.625h-38.25V357.827z"/>
		<path fill="#a9c598"  d="M292.876,625.596h38.25c10.576,0,19.125-8.549,19.125-19.125V357.846c0-10.576-8.549-19.125-19.125-19.125
			h-38.25c-10.576,0-19.125,8.549-19.125,19.125v248.625C273.751,617.047,282.3,625.596,292.876,625.596z M292.876,357.827h38.25
			v248.625h-38.25V357.827z"/>
		<path fill="#a9c598"  d="M407.626,625.596h38.25c10.576,0,19.125-8.549,19.125-19.125V357.846c0-10.576-8.549-19.125-19.125-19.125
			h-38.25c-10.576,0-19.125,8.549-19.125,19.125v248.625C388.501,617.047,397.05,625.596,407.626,625.596z M407.626,357.827h38.25
			v248.625h-38.25V357.827z"/>
	</g>
</g>
</svg>
