<?xml version="1.0" encoding="utf-8"?>
<!-- Generator: Adobe Illustrator 16.0.0, SVG Export Plug-In . SVG Version: 6.00 Build 0)  -->
<!DOCTYPE svg PUBLIC "-//W3C//DTD SVG 1.1//EN" "http://www.w3.org/Graphics/SVG/1.1/DTD/svg11.dtd">
<svg version="1.1" id="Layer_1" xmlns="http://www.w3.org/2000/svg" xmlns:xlink="http://www.w3.org/1999/xlink" x="0px" y="0px"
	 width="612px" height="792px" viewBox="0 0 612 792" enable-background="new 0 0 612 792" xml:space="preserve">
<g>
	<g>
		<path fill="#909090" d="M565.507,632.261H46.493c-10.912,0-19.451,9.014-19.451,19.451c0,10.437,9.014,19.451,19.451,19.451
			h519.488c10.911,0,19.451-9.015,19.451-19.451C585.433,641.274,576.419,632.261,565.507,632.261z"/>
		<path fill="#909090" d="M27.042,460.047l-0.475,92.512c0,5.218,1.898,10.437,5.693,14.232c3.795,3.795,8.54,5.692,13.758,5.692
			l92.037-0.474c5.219,0,9.963-1.898,13.758-5.693l317.861-317.86c7.59-7.591,7.59-19.926,0-27.991l-91.089-92.037
			c-7.591-7.59-19.926-7.59-27.99,0l-63.572,64.047L32.735,446.288C29.414,450.084,27.042,454.828,27.042,460.047L27.042,460.047z
			 M364.828,170.177l64.046,64.046l-36.056,36.056l-64.046-64.047L364.828,170.177z M66.418,468.586l234.363-234.363l64.047,64.046
			L130.465,532.158l-64.521,0.475L66.418,468.586L66.418,468.586z"/>
	</g>
</g>
</svg>
