<?xml version="1.0" encoding="utf-8"?>
<!-- Generator: Adobe Illustrator 16.0.0, SVG Export Plug-In . SVG Version: 6.00 Build 0)  -->
<!DOCTYPE svg PUBLIC "-//W3C//DTD SVG 1.1//EN" "http://www.w3.org/Graphics/SVG/1.1/DTD/svg11.dtd">
<svg version="1.1" id="Capa_1" xmlns="http://www.w3.org/2000/svg" xmlns:xlink="http://www.w3.org/1999/xlink" x="0px" y="0px"
	 width="612px" height="792px" viewBox="0 0 612 792" enable-background="new 0 0 612 792" xml:space="preserve">
<g>
	<g>
		<path fill="#909090" d="M582.654,658.712H41.349c-11.381,0-20.287,10.031-20.287,21.645c0,11.614,9.401,21.644,20.287,21.644
			h541.798c11.38,0,20.287-10.03,20.287-21.644C603.436,668.741,594.035,658.712,582.654,658.712z"/>
		<path fill="#909090" d="M21.063,467.085l-0.496,102.94c0,5.807,1.979,11.614,5.938,15.837c3.958,4.223,8.907,6.334,14.349,6.334
			l95.99-0.528c5.443,0,10.391-2.111,14.349-6.334l331.513-353.692c7.916-8.446,7.916-22.172,0-31.147L387.704,98.083
			c-7.917-8.446-20.781-8.446-29.192,0L292.21,169.35L27,451.775C23.536,455.999,21.063,461.278,21.063,467.085L21.063,467.085z
			 M373.356,144.538l66.797,71.267l-37.604,40.12l-66.797-71.267L373.356,144.538z M62.129,476.587l244.429-260.782l66.798,71.265
			L128.927,547.326l-67.292,0.526L62.129,476.587L62.129,476.587z"/>
	</g>
</g>
</svg>
