<svg height="480pt" viewBox="0 0 480 480" width="480pt" xmlns="http://www.w3.org/2000/svg"><path d="m272 176h176c17.671875 0 32 14.328125 32 32s-14.328125 32-32 32h-416c-17.671875 0-32-14.328125-32-32s14.328125-32 32-32h176" fill="#bc8f6f"/><path d="m448 200h-416c-13.425781 0-24.871094 8.28125-29.625 20 4.753906 11.71875 16.199219 20 29.625 20h416c13.425781 0 24.871094-8.28125 29.625-20-4.753906-11.71875-16.199219-20-29.625-20zm0 0" fill="#fcaf26"/>s<path d="m448 240v208c0 17.671875-14.328125 32-32 32h-352c-17.671875 0-32-14.328125-32-32v-208" fill="#8dad7a"/><path d="m64 480h350.871094c.664062-2.566406 1.128906-5.222656 1.128906-8v-208h-384v184c0 17.671875 14.328125 32 32 32zm0 0" fill="#A9C598"/><g fill="#fff"><path d="m184 432c-13.257812 0-24-10.742188-24-24v-96c0-13.257812 10.742188-24 24-24s24 10.742188 24 24v96c0 13.257812-10.742188 24-24 24zm0 0"/><path d="m104 432c-13.257812 0-24-10.742188-24-24v-96c0-13.257812 10.742188-24 24-24s24 10.742188 24 24v96c0 13.257812-10.742188 24-24 24zm0 0"/><path d="m296 432c-13.257812 0-24-10.742188-24-24v-96c0-13.257812 10.742188-24 24-24s24 10.742188 24 24v96c0 13.257812-10.742188 24-24 24zm0 0"/><path d="m376 432c-13.257812 0-24-10.742188-24-24v-96c0-13.257812 10.742188-24 24-24s24 10.742188 24 24v96c0 13.257812-10.742188 24-24 24zm0 0"/></g></svg>