<?xml version="1.0" encoding="utf-8"?>
<!-- Generator: Adobe Illustrator 16.0.0, SVG Export Plug-In . SVG Version: 6.00 Build 0)  -->
<!DOCTYPE svg PUBLIC "-//W3C//DTD SVG 1.1//EN" "http://www.w3.org/Graphics/SVG/1.1/DTD/svg11.dtd">
<svg version="1.1" id="Layer_1" xmlns="http://www.w3.org/2000/svg" xmlns:xlink="http://www.w3.org/1999/xlink" x="0px" y="0px"
	 width="169.697px" height="192.324px" viewBox="0 0 169.697 192.324" enable-background="new 0 0 169.697 192.324"
	 xml:space="preserve">
<path fill="#A9C598" d="M89.663,191.044l75.336-43.326c2.953-1.694,4.775-4.837,4.775-8.235V52.84c0-3.398-1.822-6.543-4.775-8.237
	L89.663,1.282c-2.954-1.704-6.594-1.704-9.552,0L4.775,44.603C1.825,46.296,0,49.442,0,52.84v86.643
	c0,3.398,1.825,6.541,4.775,8.235l75.336,43.326C83.066,192.751,86.712,192.751,89.663,191.044z M8.496,139.995V52.322L84.89,8.487
	l76.388,43.835v87.673L84.89,183.839L8.496,139.995z"/>
<g id="Close">
	<path fill="#A9C598" d="M92.147,96.334l24.44-24.439c2.249-2.25,2.249-5.896,0-8.146c-2.25-2.25-5.897-2.25-8.147,0l-24.439,24.44
		l-24.44-24.44c-2.25-2.25-5.897-2.25-8.147,0c-2.25,2.25-2.25,5.897,0,8.146l24.441,24.44l-24.441,24.439
		c-2.25,2.25-2.25,5.897,0,8.147c2.25,2.249,5.897,2.249,8.147,0l24.44-24.44l24.439,24.44c2.25,2.249,5.897,2.249,8.147,0
		c2.249-2.25,2.249-5.897,0-8.147L92.147,96.334z"/>
</g>
</svg>
