<?xml version="1.0" encoding="utf-8"?>
<!-- Generator: Adobe Illustrator 16.0.0, SVG Export Plug-In . SVG Version: 6.00 Build 0)  -->
<!DOCTYPE svg PUBLIC "-//W3C//DTD SVG 1.1//EN" "http://www.w3.org/Graphics/SVG/1.1/DTD/svg11.dtd">
<svg version="1.1" id="Layer_1" xmlns="http://www.w3.org/2000/svg" xmlns:xlink="http://www.w3.org/1999/xlink" x="0px" y="0px"
	 width="169.697px" height="192.324px" viewBox="0 0 169.697 192.324" enable-background="new 0 0 169.697 192.324"
	 xml:space="preserve">
<path fill="#A9C598" d="M89.663,191.044l75.336-43.326c2.953-1.694,4.775-4.837,4.775-8.235V52.84c0-3.398-1.822-6.543-4.775-8.237
	L89.663,1.282c-2.954-1.704-6.594-1.704-9.552,0L4.775,44.603C1.825,46.296,0,49.442,0,52.84v86.643
	c0,3.398,1.825,6.541,4.775,8.235l75.336,43.326C83.066,192.751,86.712,192.751,89.663,191.044z M8.496,139.995V52.322L84.89,8.487
	l76.388,43.835v87.673L84.89,183.839L8.496,139.995z"/>
<g>
	<g>
		<path fill="#A9C598" d="M137.96,91.461c-1.024-1.118-26.536-26.357-53.072-26.357c-26.443,0-52.048,25.239-53.072,26.357
			c-0.745,0.746-1.118,1.677-1.118,2.701c0,1.024,0.373,1.956,1.118,2.701c1.117,1.118,26.629,26.356,53.072,26.356
			c26.442,0,52.048-25.238,53.072-26.356c0.744-0.745,1.117-1.677,1.117-2.701C139.077,93.138,138.704,92.207,137.96,91.461z
			 M84.888,115.49c-18.529,0-37.616-15.089-44.786-21.421c7.169-6.333,26.256-21.421,44.786-21.421
			c18.528,0,37.616,15.087,44.786,21.421C122.504,100.401,103.416,115.49,84.888,115.49z M71.2,94.069
			c0,7.543,6.145,13.785,13.78,13.785s13.781-6.147,13.781-13.785c0-7.637-6.146-13.784-13.781-13.784S71.2,86.524,71.2,94.069z
			 M84.888,87.923c3.352,0.092,6.145,2.793,6.145,6.146c0,3.353-2.7,6.147-6.145,6.147c-3.353,0-6.146-2.701-6.146-6.147
			C78.742,90.623,81.443,87.923,84.888,87.923z"/>
	</g>
</g>
</svg>
