<svg id="Layer_1" height="512" viewBox="0 0 512 512" width="512" xmlns="http://www.w3.org/2000/svg" data-name="Layer 1"><path d="m375.183 161.279a215.66 215.66 0 0 0 -238.366 0 206.349 206.349 0 0 0 -76.358 92.421 6.012 6.012 0 0 0 0 4.608 206.349 206.349 0 0 0 76.358 92.417 215.66 215.66 0 0 0 238.366 0 206.349 206.349 0 0 0 76.358-92.425 6.012 6.012 0 0 0 0-4.608 206.349 206.349 0 0 0 -76.358-92.413zm-6.668 179.465a203.66 203.66 0 0 1 -225.03 0 194.484 194.484 0 0 1 -70.969-84.744 194.484 194.484 0 0 1 70.969-84.744 203.66 203.66 0 0 1 225.03 0 194.484 194.484 0 0 1 70.969 84.744 194.484 194.484 0 0 1 -70.969 84.744z"/><path d="m256 158.29a97.71 97.71 0 1 0 69.092 28.619 97.068 97.068 0 0 0 -69.092-28.619zm60.606 158.316a85.709 85.709 0 1 1 25.104-60.606 85.146 85.146 0 0 1 -25.104 60.606z"/><path d="m227.9 227.9a39.743 39.743 0 1 0 56.206 0 39.486 39.486 0 0 0 -56.206 0zm47.72 47.72a27.744 27.744 0 0 1 -39.234 0 27.743 27.743 0 1 1 39.234 0z"/></svg>