<svg id="Layer_1" height="512" viewBox="0 0 512 512" width="512" xmlns="http://www.w3.org/2000/svg" data-name="Layer 1"><path d="m445.852 57.663-91.4 91.4a215.928 215.928 0 0 0 -217.634 12.216 206.349 206.349 0 0 0 -76.359 92.421 6.012 6.012 0 0 0 0 4.608 206.349 206.349 0 0 0 76.358 92.417q4.828 3.226 9.806 6.171l-88.96 88.961a6 6 0 1 0 8.485 8.484l91.4-91.4a215.928 215.928 0 0 0 217.634-12.216 206.349 206.349 0 0 0 76.359-92.425 6.012 6.012 0 0 0 0-4.608 206.349 206.349 0 0 0 -76.358-92.417q-4.828-3.227-9.806-6.171l88.96-88.961a6 6 0 0 0 -8.485-8.484zm-302.367 283.081a194.484 194.484 0 0 1 -70.969-84.744 194.484 194.484 0 0 1 70.969-84.744 203.972 203.972 0 0 1 202.03-13.256l-24.8 24.8a97.706 97.706 0 0 0 -137.915 137.917l-27.4 27.4q-6.067-3.473-11.915-7.373zm140.258-84.744a27.745 27.745 0 0 1 -42.654 23.4l38.311-38.311a27.543 27.543 0 0 1 4.343 14.911zm-55.486 0a27.745 27.745 0 0 1 42.654-23.4l-38.311 38.311a27.543 27.543 0 0 1 -4.343-14.911zm51.282-32.024a39.748 39.748 0 0 0 -55.566 55.566l-32.659 32.658a85.688 85.688 0 0 1 120.886-120.886zm-47.078 64.048a39.748 39.748 0 0 0 55.566-55.566l32.659-32.658a85.688 85.688 0 0 1 -120.886 120.886zm136.054-116.768a194.484 194.484 0 0 1 70.969 84.744 194.484 194.484 0 0 1 -70.969 84.744 203.972 203.972 0 0 1 -202.03 13.256l24.8-24.8a97.706 97.706 0 0 0 137.915-137.917l27.4-27.4q6.067 3.473 11.915 7.373z"/></svg>