<?xml version="1.0" encoding="iso-8859-1"?>
<!-- Generator: Adobe Illustrator 21.0.0, SVG Export Plug-In . SVG Version: 6.00 Build 0)  -->
<svg version="1.1" id="Capa_1" xmlns="http://www.w3.org/2000/svg" xmlns:xlink="http://www.w3.org/1999/xlink" x="0px" y="0px"
	 viewBox="0 0 511.999 511.999" style="enable-background:new 0 0 511.999 511.999;" xml:space="preserve">
<g>
	<g>
		<path fill="#f48419" d="M459.128,184.776L349.246,83.347c-3.044-2.81-7.789-2.62-10.598,0.424c-2.809,3.043-2.62,7.789,0.424,10.598
			l109.882,101.43c5.067,4.677,7.973,11.314,7.973,18.21s-2.906,13.534-7.973,18.21L288.975,379.893
			c-18.491,17.068-47.459,17.068-65.949,0L63.047,232.22c-5.067-4.677-7.973-11.314-7.973-18.21s2.906-13.534,7.973-18.21
			L172.907,94.39c3.044-2.81,3.234-7.555,0.424-10.598c-2.809-3.044-7.554-3.234-10.598-0.424L52.872,184.776
			c-8.134,7.508-12.799,18.164-12.799,29.233V480.45c0,17.397,14.153,31.549,31.549,31.549h368.756
			c17.397,0,31.549-14.153,31.549-31.549V214.009C471.928,202.94,467.263,192.286,459.128,184.776z M456.927,463.32l-99.643-91.978
			c-3.043-2.81-7.789-2.62-10.598,0.424c-2.809,3.043-2.62,7.789,0.424,10.598l109.528,101.104
			c-1.424,7.687-8.166,13.531-16.26,13.531H71.622c-8.093,0-14.837-5.844-16.261-13.531l110.196-101.72
			c3.044-2.81,3.234-7.555,0.424-10.598c-2.809-3.044-7.554-3.234-10.598-0.424L55.073,463.32V245.275l157.778,145.641
			c11.785,10.878,27.11,16.871,43.149,16.871c16.039,0,31.363-5.991,43.149-16.871l157.779-145.641V463.32z"/>
	</g>
</g>
<g>
	<g>
		<path fill="#f48419" d="M256.001,32.047c-12.977,0-23.533,10.557-23.533,23.533c0,12.975,10.557,23.533,23.533,23.533
			s23.533-10.557,23.533-23.533C279.534,42.603,268.976,32.047,256.001,32.047z M256,64.112c-4.704,0-8.532-3.828-8.532-8.532
			c0-4.705,3.828-8.532,8.532-8.532c4.705,0,8.532,3.828,8.532,8.532S260.704,64.112,256,64.112z"/>
	</g>
</g>
<g>
	<g>
		<path fill="#f48419" d="M304.098,248.491h-24.567l-0.002-117.362c0.017-0.041,0.158-0.234,0.508-0.368c26.07-9.919,43.586-35.299,43.586-63.155
			c0-20.277-8.984-39.309-24.649-52.215C283.314,2.488,262.716-2.648,242.461,1.301c-26.791,5.222-48.067,26.811-52.944,53.719
			c-5.9,32.566,12.141,64.467,42.912,75.915c0.019,0.044,0.038,0.112,0.038,0.196v12.626c0,4.142,3.358,7.5,7.5,7.5
			s7.5-3.358,7.5-7.5v-12.626c0-6.359-3.897-12.071-9.698-14.215c-24.017-8.874-38.101-33.781-33.49-59.222
			c3.783-20.876,20.282-37.621,41.054-41.671c15.841-3.088,31.916,0.901,44.105,10.942c12.193,10.045,19.187,24.857,19.187,40.638
			c0,21.67-13.632,41.417-33.92,49.136c-6.178,2.352-10.17,7.994-10.17,14.376v189.006c0,2.507-1.097,4.877-3.01,6.505
			c-1.939,1.648-4.428,2.326-7.011,1.905c-3.95-0.643-7.043-4.713-7.043-9.268V175.827c0-4.142-3.358-7.5-7.5-7.5
			s-7.5,3.358-7.5,7.5v143.436c0,11.903,8.441,22.253,19.636,24.075c1.288,0.209,2.579,0.313,3.86,0.313
			c5.58,0,10.993-1.955,15.277-5.597c5.27-4.482,8.292-11.018,8.292-17.932v-8.532h24.566c4.142,0,7.5-3.358,7.5-7.5v-48.099
			C311.599,251.849,308.241,248.491,304.098,248.491z M296.598,296.588h-17.066l-0.001-33.098h17.067V296.588z"/>
	</g>
</g>
<g>
</g>
<g>
</g>
<g>
</g>
<g>
</g>
<g>
</g>
<g>
</g>
<g>
</g>
<g>
</g>
<g>
</g>
<g>
</g>
<g>
</g>
<g>
</g>
<g>
</g>
<g>
</g>
<g>
</g>
</svg>
