<svg height="480pt" viewBox="-48 0 480 480.00005" width="480pt" xmlns="http://www.w3.org/2000/svg"><path d="m263.917969 33.9375c-22.488281-22.523438-46.496094-33.9375-71.355469-33.9375h-.046875c-33.792969 0-59.742187 21-72.199219 33.503906-5.453125 5.746094-8.429687 13.40625-8.289062 21.328125v33.167969h-72.277344c-4.171875-.015625-7.652344 3.175781-8 7.328125l-31.7226562 376c-.1874998 2.234375.5703122 4.449219 2.0937502 6.097656 1.519531 1.648438 3.664062 2.582031 5.90625 2.574219h368c2.246094.007812 4.386718-.925781 5.910156-2.574219 1.519531-1.648437 2.277344-3.863281 2.089844-6.097656l-31.726563-376c-.351562-4.152344-3.832031-7.34375-8-7.328125h-72.273437v-32.894531c.175781-7.847657-2.734375-15.449219-8.109375-21.167969zm-135.890625 20.894531c-.121094-3.683593 1.171875-7.273437 3.617187-10.03125 10.710938-10.753906 32.863281-28.800781 60.878907-28.800781h.039062c20.457031 0 40.65625 9.839844 60 29.238281 2.351562 2.738281 3.585938 6.261719 3.464844 9.867188v32.894531h-16v-23.609375c.003906-2.050781-.78125-4.023437-2.191406-5.511719-11.109376-13.023437-27.214844-20.730468-44.328126-21.222656-17.851562.957031-34.707031 8.523438-47.289062 21.222656-1.410156 1.488282-2.191406 3.460938-2.191406 5.511719v23.609375h-16zm96 33.167969h-64v-20.160156c9.179687-8.460938 21.015625-13.476563 33.480468-14.183594 11.632813.425781 22.617188 5.46875 30.519532 14.015625zm-176.925782 16h64.925782v360h-95.296875zm80.925782 0h16v360h-16zm32 360v-360h64v360zm80 0v-360h16v360zm127.296875 0h-95.296875v-360h64.929687zm0 0"/></svg>