<?xml version="1.0" encoding="utf-8"?>
<!-- Generator: Adobe Illustrator 16.0.0, SVG Export Plug-In . SVG Version: 6.00 Build 0)  -->
<!DOCTYPE svg PUBLIC "-//W3C//DTD SVG 1.1//EN" "http://www.w3.org/Graphics/SVG/1.1/DTD/svg11.dtd">
<svg version="1.1" id="Layer_1" xmlns="http://www.w3.org/2000/svg" xmlns:xlink="http://www.w3.org/1999/xlink" x="0px" y="0px"
	 width="229px" height="209.334px" viewBox="0 0 229 209.334" enable-background="new 0 0 229 209.334" xml:space="preserve">
<g>
	<g>
		<path fill="#A9C598" d="M217.989,29.774c0,0-13.779-29.493-51.023-30.083c-33.299,0.589-47.079,21.48-47.079,21.48
			S106.871-0.611,67.864-0.333c-24.639,0-40.244,16.536-45.136,23.656C17.837,30.441,8.5,42.754,10.954,76.008l9.713-5.2
			c0,0-8.086-50.682,41.31-61.463C100.5,2.555,119.868,37.3,119.868,37.3s21.515-41.525,65.74-24.73
			c44.33,16.833,34.615,78.821,19.05,103.078c-20.129,31.677-67.725,71.53-85.772,82.934c0,0-21.966-16.39-40.803-31.638
			l-6.417,6.393c0,0,22.4,18.895,47.22,35.998c0,0,56.886-34.462,92.233-89.243C219.62,106.694,236.196,63.862,217.989,29.774z
			 M46.556,106.939c6.404-2.417,9.325-11.573,6.529-20.457c-2.788-8.876-10.236-14.115-16.64-11.699
			c-6.403,2.416-9.324,11.572-6.53,20.456C32.704,104.115,40.15,109.355,46.556,106.939z M8.626,120.801
			c6.663,5.886,15.5,5.97,19.74,0.173c4.24-5.796,2.27-15.262-4.394-21.148c-6.664-5.884-15.509-5.965-19.74-0.173
			C0,105.442,1.962,114.917,8.626,120.801z M24.242,133.17c-7.194-5.073-15.992-4.126-19.646,2.131
			c-3.651,6.256-0.775,15.44,6.417,20.514c7.199,5.081,15.993,4.123,19.646-2.131C34.312,147.428,31.436,138.243,24.242,133.17z
			 M73.825,120.376c6.593-1.663,10.396-10.415,8.478-19.57c-1.917-9.158-8.811-15.229-15.41-13.574
			c-6.598,1.654-10.396,10.412-8.477,19.57C60.333,115.959,67.232,122.04,73.825,120.376z M86.062,130.729
			c-8.33-8.427-16.686-1.334-27.624-12.92c-10.945-11.579-20.391-3-20.391-3s-10.576,6.871-4.356,22.097
			c6.212,15.233-2.714,21.474,1.69,32.931c4.405,11.454,15.619,6.04,19.109,1.398c3.497-4.631,12.204-11.672,12.204-11.672
			s8.959-6.591,14.114-8.637C85.961,148.886,94.398,139.152,86.062,130.729z"/>
	</g>
</g>
</svg>
