<?xml version="1.0" encoding="iso-8859-1"?>
<!-- Generator: Adobe Illustrator 19.0.0, SVG Export Plug-In . SVG Version: 6.00 Build 0)  -->
<svg version="1.1" id="Capa_1" xmlns="http://www.w3.org/2000/svg" xmlns:xlink="http://www.w3.org/1999/xlink" x="0px" y="0px"
	 viewBox="0 0 512 512" style="enable-background:new 0 0 512 512;" xml:space="preserve">
<g>
	<g>
		<g>
			<circle cx="53.333" cy="245.333" r="10.667"/>
			<circle cx="96" cy="245.333" r="10.667"/>
			<circle cx="138.667" cy="245.333" r="10.667"/>
			<path d="M469.333,0h-384C61.813,0,42.667,19.135,42.667,42.667V192C19.146,192,0,211.135,0,234.667v234.667
				C0,492.865,19.146,512,42.667,512h234.667C300.854,512,320,492.865,320,469.333h149.333c23.521,0,42.667-19.135,42.667-42.667
				v-384C512,19.135,492.854,0,469.333,0z M298.667,469.333c0,11.76-9.563,21.333-21.333,21.333H42.667
				c-11.771,0-21.333-9.573-21.333-21.333V298.667h277.333V469.333z M298.667,277.333H21.333v-42.667
				c0-11.76,9.563-21.333,21.333-21.333h234.667c11.771,0,21.333,9.573,21.333,21.333V277.333z M490.667,426.667
				c0,11.76-9.563,21.333-21.333,21.333H320V234.667C320,211.135,300.854,192,277.333,192H64V42.667
				c0-11.76,9.563-21.333,21.333-21.333h384c11.771,0,21.333,9.573,21.333,21.333V426.667z"/>
			<path d="M373.333,128h-32c-5.896,0-10.667,4.771-10.667,10.667c0,5.896,4.771,10.667,10.667,10.667h6.25l-24.458,24.458
				c-4.167,4.167-4.167,10.917,0,15.083c2.083,2.083,4.813,3.125,7.542,3.125c2.729,0,5.458-1.042,7.542-3.125l24.458-24.458v6.25
				c0,5.896,4.771,10.667,10.667,10.667c5.896,0,10.667-4.771,10.667-10.667v-32C384,132.771,379.229,128,373.333,128z"/>
		</g>
	</g>
</g>
<g>
</g>
<g>
</g>
<g>
</g>
<g>
</g>
<g>
</g>
<g>
</g>
<g>
</g>
<g>
</g>
<g>
</g>
<g>
</g>
<g>
</g>
<g>
</g>
<g>
</g>
<g>
</g>
<g>
</g>
</svg>
