<svg viewBox="0 0 314 245" xmlns="http://www.w3.org/2000/svg"><g fill="none" fill-rule="evenodd"><path d="M33.574 170.928C29.309 158.059 27 144.299 27 130 27 58.203 85.203 0 157 0s130 58.203 130 130c0 17.037-3.277 33.308-9.236 48.218a40.004 40.004 0 0 0-14.267-3.97l-1.313-.113-.415-1.25c-6.878-20.723-26.323-34.99-48.507-34.99-17.458 0-33.41 8.821-42.792 23.162l-.992 1.515-1.606-.837a40.051 40.051 0 0 0-18.569-4.53c-16.38 0-30.936 9.878-37.144 24.737l-.983 2.354-2.051-1.517a19.622 19.622 0 0 0-11.713-3.853 19.625 19.625 0 0 0-12.109 4.154l-1.605 1.25-1.222-1.626c-7.456-9.916-19.005-15.846-31.524-15.846a39.013 39.013 0 0 0-17.378 4.07z" fill="#EFF0F3"/><g transform="translate(0 210)"><rect fill="#C7CAD3" width="37" height="4" rx="2"/><rect fill="#C7CAD3" x="104" width="207" height="4" rx="2"/><rect fill="#D8DAE0" x="193" y="16" width="97" height="4" rx="2"/><rect fill="#D8DAE0" x="33" y="16" width="147" height="4" rx="2"/><rect fill="#C7CAD3" x="257" width="57" height="4" rx="2"/><rect fill="#C7CAD3" x="40" width="40.5" height="4" rx="2"/><rect fill="#EFF0F3" x="170" y="31" width="77" height="4" rx="2"/><rect fill="#EFF0F3" x="100" y="31" width="57" height="4" rx="2"/><rect fill="#EFF0F3" x="70" y="31" width="17" height="4" rx="2"/><rect fill="#EFF0F3" x="90" y="31" width="7" height="4" rx="2"/></g><g transform="translate(82 51)"><path d="M20.23 40.186V10c0-5.523 4.478-10 10-10H141c5.523 0 10 4.477 10 10v138.95c-.344 3.783-1.918 7.107-4.425 9.618A15.03 15.03 0 0 1 135.918 163l-120.199-.013a15.03 15.03 0 0 1-11.294-4.419A15.067 15.067 0 0 1 0 147.9V45.156a4.968 4.968 0 0 1 4.966-4.97h15.265z" fill="#C7CAD3" fill-rule="nonzero"/><path d="M147 10a6 6 0 0 0-6-6H30.23a6 6 0 0 0-6 6v34.186H5.015c-.58 0-1.014.434-1.014.97V147.9c0 2.972 1.185 5.767 3.256 7.841a11.031 11.031 0 0 0 8.38 3.247l120.283.012c2.965 0 5.755-1.186 7.825-3.259a11.349 11.349 0 0 0 3.256-6.887V10z" fill="#FFF"/><path d="M9.932 50.127V147.9c0 1.375.551 2.673 1.518 3.64a5.12 5.12 0 0 0 3.631 1.52 5.12 5.12 0 0 0 3.632-1.52 5.141 5.141 0 0 0 1.518-3.64V50.127H9.932z" fill="#C7CAD3"/><rect fill="#C7CAD3" x="40" y="75" width="47" height="4" rx="2"/><rect fill="#C7CAD3" x="92" y="75" width="27" height="4" rx="2"/><rect fill="#C7CAD3" x="40" y="115" width="47" height="4" rx="2"/><rect fill="#C7CAD3" x="92" y="115" width="27" height="4" rx="2"/><rect fill="#C7CAD3" x="40" y="85" width="27" height="4" rx="2"/><rect fill="#C7CAD3" x="40" y="105" width="67" height="4" rx="2"/><rect fill="#C7CAD3" x="110" y="105" width="17" height="4" rx="2"/><rect fill="#C7CAD3" x="90" y="85" width="42" height="4" rx="2"/><rect fill="#C7CAD3" x="70" y="85" width="17" height="4" rx="2"/><rect fill="#C7CAD3" x="40" y="125" width="27" height="4" rx="2"/><rect fill="#C7CAD3" x="90" y="125" width="42" height="4" rx="2"/><rect fill="#C7CAD3" x="70" y="125" width="17" height="4" rx="2"/><path d="M65.584 43.8c0 .747-.075 1.568-.224 2.464a6.208 6.208 0 0 1-1.024 2.512c-.533.779-1.301 1.43-2.304 1.952-1.003.523-2.357.784-4.064.784-.96 0-1.888-.133-2.784-.4a6.965 6.965 0 0 1-2.4-1.248c-.704-.565-1.27-1.29-1.696-2.176-.427-.885-.64-1.957-.64-3.216v-1.984h4.544v1.024a8.6 8.6 0 0 0 .128 1.536c.085.47.235.87.448 1.2.213.33.507.592.88.784.373.192.859.288 1.456.288.661 0 1.173-.117 1.536-.352a2.02 2.02 0 0 0 .784-.912c.16-.373.256-.779.288-1.216.032-.437.048-.859.048-1.264V28.152h5.024V43.8zm8.848-4.128c0 .96.112 1.893.336 2.8a7.567 7.567 0 0 0 1.072 2.448 5.494 5.494 0 0 0 1.92 1.744c.79.437 1.75.656 2.88.656s2.09-.219 2.88-.656a5.494 5.494 0 0 0 1.92-1.744 7.567 7.567 0 0 0 1.072-2.448c.224-.907.336-1.84.336-2.8 0-1.003-.112-1.973-.336-2.912a7.712 7.712 0 0 0-1.072-2.512 5.438 5.438 0 0 0-1.92-1.76c-.79-.437-1.75-.656-2.88-.656s-2.09.219-2.88.656a5.438 5.438 0 0 0-1.92 1.76 7.712 7.712 0 0 0-1.072 2.512c-.224.939-.336 1.91-.336 2.912zm-5.024 0c0-1.707.256-3.29.768-4.752.512-1.461 1.248-2.736 2.208-3.824.96-1.088 2.139-1.941 3.536-2.56 1.397-.619 2.97-.928 4.72-.928 1.77 0 3.35.31 4.736.928 1.387.619 2.56 1.472 3.52 2.56s1.696 2.363 2.208 3.824c.512 1.461.768 3.045.768 4.752 0 1.664-.256 3.216-.768 4.656-.512 1.44-1.248 2.693-2.208 3.76-.96 1.067-2.133 1.904-3.52 2.512-1.387.608-2.965.912-4.736.912-1.75 0-3.323-.304-4.72-.912-1.397-.608-2.576-1.445-3.536-2.512s-1.696-2.32-2.208-3.76c-.512-1.44-.768-2.992-.768-4.656zM100.72 37.4h5.088c.896 0 1.632-.213 2.208-.64.576-.427.864-1.12.864-2.08 0-.533-.096-.97-.288-1.312a2.13 2.13 0 0 0-.768-.8 3.237 3.237 0 0 0-1.104-.4 7.325 7.325 0 0 0-1.296-.112h-4.704V37.4zm-5.024-9.248h10.752c1.088 0 2.08.096 2.976.288.896.192 1.664.507 2.304.944a4.39 4.39 0 0 1 1.488 1.744c.352.725.528 1.621.528 2.688 0 1.152-.261 2.112-.784 2.88-.523.768-1.296 1.397-2.32 1.888 1.408.405 2.459 1.115 3.152 2.128.693 1.013 1.04 2.235 1.04 3.664 0 1.152-.224 2.15-.672 2.992a5.83 5.83 0 0 1-1.808 2.064 8 8 0 0 1-2.592 1.184c-.97.256-1.968.384-2.992.384H95.696V28.152zm5.024 18.944h5.376c.49 0 .96-.048 1.408-.144a3.455 3.455 0 0 0 1.184-.48c.341-.224.613-.528.816-.912.203-.384.304-.875.304-1.472 0-1.173-.33-2.01-.992-2.512-.661-.501-1.536-.752-2.624-.752h-5.472v6.272z" fill="#C7CAD3"/></g><g transform="translate(19 41)" fill="#C7CAD3"><path d="M253 27c-6.627 0-12-5.373-12-12s5.373-12 12-12 12 5.373 12 12-5.373 12-12 12zm0-4a8 8 0 1 0 0-16 8 8 0 0 0 0 16zM235 43a7 7 0 1 1 0-14 7 7 0 0 1 0 14zm0-4a3 3 0 1 0 0-6 3 3 0 0 0 0 6zM12 103c-6.627 0-12-5.373-12-12s5.373-12 12-12 12 5.373 12 12-5.373 12-12 12zm0-4a8 8 0 1 0 0-16 8 8 0 0 0 0 16z" fill-rule="nonzero"/><rect x="33" y="28" width="20" height="4" rx="2"/><rect transform="rotate(90 43 30)" x="33" y="28" width="20" height="4" rx="2"/><rect x="53" y="8" width="20" height="4" rx="2"/><rect transform="rotate(90 63 10)" x="53" y="8" width="20" height="4" rx="2"/><rect x="255" y="58" width="20" height="4" rx="2"/><rect transform="rotate(90 265 60)" x="255" y="58" width="20" height="4" rx="2"/></g></g></svg>