<?xml version="1.0" encoding="utf-8"?>
<!-- Generator: Adobe Illustrator 16.0.0, SVG Export Plug-In . SVG Version: 6.00 Build 0)  -->
<!DOCTYPE svg PUBLIC "-//W3C//DTD SVG 1.1//EN" "http://www.w3.org/Graphics/SVG/1.1/DTD/svg11.dtd">
<svg version="1.1" id="Outline" xmlns="http://www.w3.org/2000/svg" xmlns:xlink="http://www.w3.org/1999/xlink" x="0px" y="0px"
	 width="512px" height="512px" viewBox="0 0 512 512" enable-background="new 0 0 512 512" xml:space="preserve">
<path d="M17.453,125.5h54.891c9.625,0,17.453-7.832,17.453-17.457V53.152c0-9.621-7.828-17.453-17.453-17.453H17.453
	C7.828,35.699,0,43.527,0,53.152v54.891C0,117.668,7.828,125.5,17.453,125.5z M15,53.152c0-1.352,1.102-2.453,2.453-2.453h54.891
	c1.352,0,2.453,1.102,2.453,2.453v54.891c0,1.352-1.102,2.453-2.453,2.453H17.453c-1.352,0-2.453-1.102-2.453-2.453V53.152z"/>
<path d="M494.547,35.699h-47.852c-4.141,0-7.5,3.359-7.5,7.5s3.359,7.5,7.5,7.5h47.852c1.352,0,2.453,1.102,2.453,2.453v54.891
	c0,1.352-1.102,2.453-2.453,2.453H132.012c-1.352,0-2.453-1.102-2.453-2.453V53.152c0-1.352,1.102-2.453,2.453-2.453h279.293
	c4.141,0,7.5-3.359,7.5-7.5s-3.359-7.5-7.5-7.5H132.012c-9.625,0-17.453,7.828-17.453,17.453v54.891
	c0,9.625,7.828,17.453,17.453,17.453h362.535c9.625,0,17.453-7.828,17.453-17.453V53.152C512,43.527,504.172,35.699,494.547,35.699z
	"/>
<path d="M17.453,300.746h54.891c9.625,0,17.453-7.832,17.453-17.453v-54.891c0-9.625-7.828-17.457-17.453-17.457H17.453
	C7.828,210.945,0,218.777,0,228.402v54.891C0,292.914,7.828,300.746,17.453,300.746z M15,228.402c0-1.355,1.102-2.457,2.453-2.457
	h54.891c1.352,0,2.453,1.102,2.453,2.457v54.891c0,1.352-1.102,2.453-2.453,2.453H17.453c-1.352,0-2.453-1.102-2.453-2.453V228.402z
	"/>
<path d="M132.012,300.746h242.535c9.625,0,17.453-7.832,17.453-17.453v-54.891c0-9.625-7.828-17.457-17.453-17.457H184.699
	c-4.145,0-7.5,3.359-7.5,7.5c0,4.145,3.355,7.5,7.5,7.5h189.848c1.352,0,2.453,1.102,2.453,2.457v54.891
	c0,1.352-1.102,2.453-2.453,2.453H132.012c-1.352,0-2.453-1.102-2.453-2.453v-54.891c0-1.355,1.102-2.457,2.453-2.457h17.293
	c4.141,0,7.5-3.355,7.5-7.5c0-4.141-3.359-7.5-7.5-7.5h-17.293c-9.625,0-17.453,7.832-17.453,17.457v54.891
	C114.559,292.914,122.387,300.746,132.012,300.746z"/>
<path d="M72.344,382.195H17.453C7.828,382.195,0,390.023,0,399.648v54.891c0,9.625,7.828,17.453,17.453,17.453h54.891
	c9.625,0,17.457-7.828,17.457-17.453v-10.996c0-4.145-3.359-7.5-7.5-7.5c-4.145,0-7.5,3.355-7.5,7.5v10.996
	c0,1.352-1.102,2.453-2.457,2.453H17.453c-1.352,0-2.453-1.102-2.453-2.453v-54.891c0-1.352,1.102-2.453,2.453-2.453h54.891
	c1.355,0,2.457,1.102,2.457,2.453v8.5c0,4.141,3.355,7.5,7.5,7.5c4.141,0,7.5-3.359,7.5-7.5v-8.5
	C89.801,390.023,81.969,382.195,72.344,382.195z"/>
<path d="M494.547,382.195H132.012c-9.625,0-17.453,7.828-17.453,17.453v54.891c0,9.625,7.828,17.453,17.453,17.453h362.535
	c9.625,0,17.453-7.828,17.453-17.453v-54.891C512,390.023,504.172,382.195,494.547,382.195z M497,454.539
	c0,1.352-1.102,2.453-2.453,2.453H132.012c-1.352,0-2.453-1.102-2.453-2.453v-54.891c0-1.352,1.102-2.453,2.453-2.453h362.535
	c1.352,0,2.453,1.102,2.453,2.453V454.539z"/>
</svg>
