<?xml version="1.0" encoding="utf-8"?>
<!-- Generator: Adobe Illustrator 16.0.0, SVG Export Plug-In . SVG Version: 6.00 Build 0)  -->
<!DOCTYPE svg PUBLIC "-//W3C//DTD SVG 1.1//EN" "http://www.w3.org/Graphics/SVG/1.1/DTD/svg11.dtd">
<svg version="1.1" id="Layer_1" xmlns="http://www.w3.org/2000/svg" xmlns:xlink="http://www.w3.org/1999/xlink" x="0px" y="0px"
	 width="169.697px" height="192.324px" viewBox="0 0 169.697 192.324" enable-background="new 0 0 169.697 192.324"
	 xml:space="preserve">
<path fill="#A9C598" d="M115.882,125.242c2.413,11.062-9.614,13.462-14.911,12.022c-5.298-1.44-16.103-1.68-16.103-1.68
	s-10.835,0.24-16.132,1.68c-5.298,1.451-17.334-0.96-14.932-12.022c2.404-11.063,12.998-10.582,15.902-25.496
	c2.894-14.913,15.171-13.952,15.171-13.952s12.247-0.96,15.141,13.952C102.904,114.66,113.478,114.179,115.882,125.242z
	 M95.983,84.823c6.52,1.88,13.72-3.26,16.092-11.482c2.374-8.212-0.981-16.394-7.5-18.274c-6.518-1.88-13.718,3.26-16.092,11.482
	C86.11,74.761,89.464,82.942,95.983,84.823z M123.001,81.833c-6.278-2.56-13.989,1.78-17.223,9.702
	c-3.234,7.922-0.771,16.415,5.507,18.964c6.279,2.551,13.989-1.781,17.224-9.702C131.744,92.875,129.28,84.393,123.001,81.833z
	 M73.704,84.823c6.519-1.88,9.873-10.062,7.5-18.274c-2.374-8.211-9.583-13.354-16.092-11.473c-6.51,1.88-9.875,10.063-7.5,18.275
	C59.984,81.563,67.185,86.703,73.704,84.823z M58.412,110.499c6.279-2.56,8.743-11.052,5.508-18.964
	c-3.234-7.912-10.945-12.262-17.224-9.702c-6.278,2.561-8.741,11.053-5.508,18.964C44.422,108.718,52.134,113.059,58.412,110.499z"
	/>
<path fill="#A9C598" d="M89.663,191.044l75.336-43.326c2.953-1.694,4.775-4.837,4.775-8.236V52.84c0-3.398-1.822-6.543-4.775-8.237
	L89.663,1.282c-2.954-1.704-6.594-1.704-9.552,0L4.775,44.603C1.825,46.296,0,49.442,0,52.84v86.642
	c0,3.399,1.825,6.542,4.775,8.236l75.336,43.326C83.066,192.751,86.712,192.751,89.663,191.044z M8.496,139.995V52.322L84.89,8.487
	l76.388,43.835v87.673L84.89,183.839L8.496,139.995z"/>
</svg>
