<?xml version="1.0" encoding="utf-8"?>
<!-- Generator: Adobe Illustrator 16.0.0, SVG Export Plug-In . SVG Version: 6.00 Build 0)  -->
<!DOCTYPE svg PUBLIC "-//W3C//DTD SVG 1.1//EN" "http://www.w3.org/Graphics/SVG/1.1/DTD/svg11.dtd">
<svg version="1.1" id="Layer_1" xmlns="http://www.w3.org/2000/svg" xmlns:xlink="http://www.w3.org/1999/xlink" x="0px" y="0px"
	 width="612px" height="792px" viewBox="0 0 612 792" enable-background="new 0 0 612 792" xml:space="preserve">
<path d="M559.375,159.944H286v-11.324c-0.032-31.256-22.679-56.585-50.625-56.621H53.124c-27.946,0.035-50.593,25.364-50.625,56.621
	v498.26c0.032,31.256,22.679,56.586,50.625,56.62h506.251c27.946-0.034,50.594-25.364,50.625-56.62V216.565
	C609.969,185.309,587.321,159.98,559.375,159.944z M589.75,646.881c-0.02,18.752-13.608,33.95-30.375,33.972H53.124
	c-16.768-0.021-30.355-15.22-30.375-33.972v-498.26c0.02-18.753,13.607-33.95,30.375-33.972h182.25
	c16.768,0.022,30.355,15.219,30.375,33.972v90.593c0,6.254,4.533,11.324,10.125,11.324h283.5
	c16.767,0.022,30.355,15.219,30.375,33.973V646.881z M589.75,239.244c-8.751-7.381-19.415-11.367-30.375-11.355H286v-45.296h273.375
	c16.767,0.022,30.355,15.219,30.375,33.972V239.244z"/>
<path d="M340.848,427.907c20.51-21.252,21.732-57.076,2.729-80.015c-19.003-22.938-51.034-24.304-71.543-3.052
	c-20.509,21.253-21.731,57.076-2.729,80.015c0.838,1.012,1.709,1.989,2.61,2.929c-36.988,16.413-64.281,58.535-66.899,109.182
	c-0.132,2.565,0.521,5.106,1.852,7.204c38.954,61.387,115.027,75.832,169.915,32.267c11.17-8.866,20.923-19.775,28.85-32.267
	c1.33-2.098,1.984-4.639,1.852-7.204C404.871,486.441,377.7,444.403,340.848,427.907z M306.439,352.454
	c16.774,0,30.375,15.21,30.375,33.972s-13.601,33.972-30.375,33.972c-16.776,0-30.375-15.21-30.375-33.972
	C276.084,367.673,289.671,352.476,306.439,352.454z M306.249,578.936c-31.66-0.025-61.506-16.531-80.746-44.651
	c4.276-51.479,39.146-91.237,80.746-91.237c41.602,0,76.471,39.759,80.747,91.237C367.756,562.404,337.91,578.91,306.249,578.936
	L306.249,578.936z"/>
</svg>
