<?xml version="1.0" encoding="utf-8"?>
<!-- Generator: Adobe Illustrator 16.0.0, SVG Export Plug-In . SVG Version: 6.00 Build 0)  -->
<!DOCTYPE svg PUBLIC "-//W3C//DTD SVG 1.1//EN" "http://www.w3.org/Graphics/SVG/1.1/DTD/svg11.dtd">
<svg version="1.1" id="Layer_1" xmlns="http://www.w3.org/2000/svg" xmlns:xlink="http://www.w3.org/1999/xlink" x="0px" y="0px"
	 width="169.697px" height="192.324px" viewBox="0 0 169.697 192.324" enable-background="new 0 0 169.697 192.324"
	 xml:space="preserve">
<path fill="#A9C598" d="M89.663,191.044l75.336-43.326c2.953-1.694,4.775-4.837,4.775-8.235V52.84c0-3.398-1.822-6.543-4.775-8.237
	L89.663,1.282c-2.954-1.704-6.594-1.704-9.552,0L4.775,44.603C1.825,46.296,0,49.442,0,52.84v86.643
	c0,3.398,1.825,6.541,4.775,8.235l75.336,43.326C83.066,192.751,86.712,192.751,89.663,191.044z M8.496,139.995V52.322L84.89,8.487
	l76.388,43.835v87.673L84.89,183.839L8.496,139.995z"/>
<g>
	<g>
		<path fill="#A9C598" d="M115.531,47.767h-76.79v95.466h93.518V64.495L115.531,47.767z M60.172,51.663h46.759V78.94H60.172V51.663z
			 M112.776,139.337H56.275v-37.019h56.501V139.337z M128.362,139.337h-11.69V98.422H52.379v40.915h-9.741V51.663h13.638v31.173
			h54.553V51.663h3.089l14.445,14.445V139.337z M64.069,112.061h13.638c1.078,0,1.948-0.871,1.948-1.948s-0.87-1.949-1.948-1.949
			H64.069c-1.078,0-1.948,0.872-1.948,1.949S62.991,112.061,64.069,112.061z M64.069,119.854h19.483
			c1.078,0,1.948-0.871,1.948-1.948s-0.87-1.948-1.948-1.948H64.069c-1.078,0-1.948,0.871-1.948,1.948
			S62.991,119.854,64.069,119.854z M89.396,119.854c0.506,0,1.013-0.215,1.384-0.565c0.349-0.37,0.564-0.876,0.564-1.383
			c0-0.506-0.216-1.016-0.564-1.384c-0.722-0.721-2.046-0.721-2.767,0c-0.352,0.368-0.565,0.878-0.565,1.384
			c0,0.507,0.214,1.013,0.565,1.383C88.381,119.639,88.867,119.854,89.396,119.854z M91.345,75.043h11.69V55.56h-11.69V75.043z
			 M95.241,59.457h3.897v11.69h-3.897V59.457z"/>
	</g>
</g>
</svg>
