<?xml version="1.0" encoding="utf-8"?>
<!-- Generator: Adobe Illustrator 16.0.0, SVG Export Plug-In . SVG Version: 6.00 Build 0)  -->
<!DOCTYPE svg PUBLIC "-//W3C//DTD SVG 1.1//EN" "http://www.w3.org/Graphics/SVG/1.1/DTD/svg11.dtd">
<svg version="1.1" id="Capa_1" xmlns="http://www.w3.org/2000/svg" xmlns:xlink="http://www.w3.org/1999/xlink" x="0px" y="0px"
	 width="612px" height="792px" viewBox="0 0 612 792" enable-background="new 0 0 612 792" xml:space="preserve">
<path display="none" fill="#FAAC3A" d="M612,396c0-168.723-137.277-306-306-306S0,227.277,0,396
	c0,89.118,38.322,169.446,99.322,225.416l-0.29,0.256l9.925,8.368c0.646,0.545,1.347,0.99,1.992,1.524
	c5.274,4.373,10.738,8.523,16.301,12.54c1.803,1.302,3.605,2.604,5.441,3.872c5.942,4.096,12.04,7.979,18.271,11.662
	c1.357,0.801,2.726,1.58,4.095,2.358c6.821,3.884,13.787,7.545,20.919,10.905c0.523,0.244,1.057,0.467,1.58,0.712
	c23.245,10.805,48.059,18.738,74.007,23.423c0.679,0.122,1.357,0.245,2.047,0.367c8.056,1.391,16.201,2.504,24.447,3.249
	c1.001,0.089,2.003,0.145,3.015,0.234C289.287,701.566,297.588,702,306,702c8.334,0,16.558-0.434,24.725-1.091
	c1.035-0.089,2.07-0.145,3.104-0.233c8.179-0.745,16.257-1.825,24.235-3.193c0.689-0.122,1.391-0.245,2.081-0.379
	c25.56-4.584,50.017-12.34,72.961-22.866c0.846-0.39,1.703-0.757,2.549-1.157c6.865-3.227,13.575-6.71,20.151-10.415
	c1.636-0.924,3.26-1.858,4.885-2.815c5.986-3.527,11.873-7.21,17.592-11.127c2.059-1.402,4.073-2.882,6.109-4.351
	c4.885-3.517,9.681-7.144,14.343-10.938c1.035-0.834,2.147-1.558,3.16-2.414l10.182-8.502l-0.301-0.256
	C573.311,566.27,612,485.574,612,396z M22.254,396c0-156.46,127.285-283.746,283.746-283.746
	c156.461,0,283.745,127.285,283.745,283.746c0,84.312-36.998,160.11-95.572,212.119c-3.271-2.259-6.564-4.284-9.937-5.976
	l-94.214-47.102c-8.457-4.229-13.709-12.729-13.709-22.177v-32.903c2.181-2.692,4.484-5.741,6.865-9.091
	c12.195-17.225,21.977-36.386,29.109-57.005c14.098-6.699,23.2-20.741,23.2-36.598v-39.446c0-9.647-3.539-19.005-9.87-26.36v-51.931
	c0.579-5.786,2.626-38.367-20.952-65.25c-20.508-23.412-53.701-35.262-98.666-35.262c-44.965,0-78.158,11.851-98.666,35.251
	c-23.579,26.883-21.531,59.486-20.953,65.25v51.931c-6.32,7.355-9.87,16.713-9.87,26.36v39.447c0,12.251,5.497,23.679,14.911,31.39
	c9.013,35.307,27.563,62.034,34.417,71.092v32.202c0,9.08-4.952,17.426-12.93,21.788l-87.983,47.991
	c-2.804,1.524-5.586,3.305-8.368,5.297C58.708,555.031,22.254,479.699,22.254,396z"/>
<g display="none">
	<g display="inline">
		<path fill-rule="evenodd" clip-rule="evenodd" fill="#6B1313" d="M308.084,90.01C137.934,90.01,0,227.008,0,396.004
			S137.934,702,308.084,702s308.083-136.999,308.083-305.996S478.234,90.01,308.084,90.01z M307.566,672.222
			c-153.877,0-278.619-123.896-278.619-276.73s124.742-283.73,278.619-283.73c153.878,0,283.619,130.896,283.619,283.73
			S461.444,672.222,307.566,672.222z"/>
	</g>
</g>
<path fill="#FFFFFF" d="M306,381.49c-74.53,0-135.165-60.631-135.165-135.161c0-74.53,60.635-135.166,135.165-135.166
	c74.529,0,135.165,60.636,135.165,135.166C441.165,320.859,380.529,381.49,306,381.49z M306,151.712
	c-52.172,0-94.617,42.44-94.617,94.617c0,52.171,42.445,94.611,94.617,94.611c52.171,0,94.617-42.44,94.617-94.611
	C400.617,194.152,358.171,151.712,306,151.712z"/>
<path fill="#FFFFFF" d="M529.02,678.852H82.979c-11.191,0-20.275-9.083-20.275-20.274v-94.615
	c0-70.798,57.606-128.404,128.404-128.404h229.782c70.798,0,128.404,57.606,128.404,128.404v94.615
	C549.295,669.769,540.212,678.852,529.02,678.852z M103.254,638.303h405.492v-74.341c0-48.44-39.416-87.856-87.855-87.856H191.109
	c-48.439,0-87.854,39.416-87.854,87.856V638.303z"/>
</svg>
