<?xml version="1.0" encoding="utf-8"?>
<!-- Generator: Adobe Illustrator 16.0.0, SVG Export Plug-In . SVG Version: 6.00 Build 0)  -->
<!DOCTYPE svg PUBLIC "-//W3C//DTD SVG 1.1//EN" "http://www.w3.org/Graphics/SVG/1.1/DTD/svg11.dtd">
<svg version="1.1" id="_x34_BEEEES" xmlns="http://www.w3.org/2000/svg" xmlns:xlink="http://www.w3.org/1999/xlink" x="0px"
	 y="0px" width="1000px" height="728.5px" viewBox="0 0 1000 728.5" enable-background="new 0 0 1000 728.5" xml:space="preserve">
<polygon fill="#FFFFFF" points="622.139,166.549 622.139,306.183 500,376 377.861,306.183 377.861,166.549 263.983,101.455 
	263.983,371.277 500,506.188 736.017,371.277 736.017,101.455 "/>
<polygon fill="#FFCC33" points="500,236.366 263.983,101.456 381.991,34 381.991,34 500,101.456 618.008,34 618.008,34 
	736.017,101.456 500,236.366 "/>
<g>
	<polygon points="263.983,101.455 263.983,116.65 377.861,181.424 377.861,166.549 	"/>
	<polygon points="736.017,101.455 622.139,166.549 622.139,181.442 736.017,116.738 	"/>
</g>
<g>
	<path fill="#FFFFFF" d="M128.43,710.377H0.003v-36.479l65.712-75.705H0.751v-41.229h126.926v36.23L63.466,668.9h64.963V710.377z"/>
	<path fill="#FFFFFF" d="M219.254,712.875c-45.972,0-77.205-33.479-77.205-79.203c0-45.975,31.233-79.205,77.205-79.205
		c45.976,0,77.457,33.23,77.457,79.205C296.711,679.396,265.23,712.875,219.254,712.875z M219.254,596.693
		c-16.987,0-28.484,13.99-28.484,36.979c0,22.986,11.497,36.977,28.484,36.977c16.991,0,28.736-13.99,28.736-36.977
		C247.991,610.684,236.246,596.693,219.254,596.693z"/>
	<path fill="#FFFFFF" d="M387.487,712.875c-45.972,0-77.205-33.479-77.205-79.203c0-45.975,31.233-79.205,77.205-79.205
		c45.976,0,77.457,33.23,77.457,79.205C464.944,679.396,433.463,712.875,387.487,712.875z M387.487,596.693
		c-16.987,0-28.484,13.99-28.484,36.979c0,22.986,11.497,36.977,28.484,36.977c16.991,0,28.736-13.99,28.736-36.977
		C416.224,610.684,404.479,596.693,387.487,596.693z"/>
	<path fill="#FFFFFF" d="M554.471,554.467c40.478,0,63.215,24.486,68.462,55.721H574.46c-2.749-8.248-9.744-13.494-19.989-13.494
		c-17.491,0-27.235,15.738-27.235,36.979c0,20.986,9.744,36.977,27.235,36.977c10.245,0,17.24-5.246,19.989-13.742h48.473
		c-5.247,31.486-27.984,55.969-68.462,55.969c-44.723,0-75.956-33.23-75.956-79.203
		C478.515,587.697,509.748,554.467,554.471,554.467z"/>
	<path fill="#FFFFFF" d="M691.194,710.377h-48.473V556.965h48.473V710.377z"/>
	<path fill="#FFFFFF" d="M813.427,556.965l57.965,153.412h-48.969l-7.996-22.236h-53.971l-7.995,22.236h-47.473l57.969-153.412
		H813.427z M774.698,648.91h25.487l-12.746-35.227L774.698,648.91z"/>
	<path fill="#FFFFFF" d="M885.561,556.965h48.473V668.9h65.964v41.477H885.561V556.965z"/>
</g>
</svg>
